<svg viewBox="0 0 48 48" stroke="currentColor">
  <circle cx="24" cy="24" r="6.5" fill="none" stroke-width="3" stroke-miterlimit="10" />
  <path d="M28.527 39.098a4.5 4.5 0 0 1 6.285-3.629l2.668 1.174a18.46 18.46 0 0 0 4.224-7.28l-2.365-1.734a4.5 4.5 0 0 1 0-7.258l2.365-1.734a18.46 18.46 0 0 0-4.224-7.28l-2.668 1.174a4.5 4.5 0 0 1-6.285-3.629L28.209 6c-1.354-.316-2.759-.5-4.209-.5s-2.855.184-4.209.499l-.318 2.902a4.5 4.5 0 0 1-6.285 3.629l-2.668-1.174a18.46 18.46 0 0 0-4.224 7.28l2.365 1.734a4.503 4.503 0 0 1 0 7.259l-2.365 1.734a18.45 18.45 0 0 0 4.224 7.28l2.668-1.174a4.5 4.5 0 0 1 6.285 3.629L19.791 42c1.354.316 2.759.5 4.209.5s2.855-.184 4.209-.499z" fill="none" stroke-width="3" stroke-linejoin="round" stroke-miterlimit="10" />
</svg>
